<svg width="122" height="138" viewBox="0 0 122 138" fill="none" xmlns="http://www.w3.org/2000/svg">
<path fill-rule="evenodd" clip-rule="evenodd" d="M48.052 1.81074C44.937 2.80674 40.829 4.58574 38.924 5.76374C30.551 10.9377 22.499 23.2017 21.468 32.3507C21.11 35.5227 20.32 36.9777 18.169 38.4237C13.974 41.2427 13.216 43.8887 13.22 55.6887C13.224 67.7107 14.627 71.5017 20.122 74.3427C24.455 76.5837 31.376 76.3397 34.561 73.8347L37.176 71.7777L39.192 75.0847C41.245 78.4517 41.777 82.4617 40.448 84.5497C40.043 85.1877 36.787 86.4617 33.214 87.3817C18.054 91.2837 8.70601 98.2877 3.40401 109.717C1.17001 114.533 0.713002 117.095 0.386002 126.642L0 137.892H60.001C127.574 137.892 121.23 138.756 121.199 129.56C121.123 107.106 109.738 92.9957 87.161 87.3777C78.953 85.3357 76.872 82.8667 80.513 79.4917C81.842 78.2607 83.106 76.7557 83.322 76.1477C83.592 75.3887 85.13 75.3057 88.216 75.8837C97.4 77.6037 104.8 74.3197 107.845 67.1737C109.489 63.3147 109.678 48.5157 108.139 44.1007C107.547 42.4017 105.522 39.8367 103.639 38.4007C101.123 36.4817 100.216 35.0187 100.216 32.8787C100.216 26.7087 96.126 18.6267 89.798 12.2937C86.448 8.94074 82.133 5.38274 80.211 4.38874C71.16 -0.294258 57.946 -1.35326 48.052 1.81074ZM72.514 6.90174C80.896 9.49074 87.944 15.6587 92.158 24.0927C95.498 30.7747 96.173 35.8917 93.716 35.8917C92.666 35.8917 92.216 34.8327 92.216 32.3587C92.216 28.8057 88.822 21.1917 85.502 17.2977C79.611 10.3877 67.528 6.15274 57.216 7.38474C51.024 8.12374 41.889 11.9107 38.407 15.1827C34.821 18.5507 31.987 23.6977 30.277 29.9417C28.51 36.3987 26.591 37.6527 26.963 32.1077C27.344 26.4327 31.789 18.4607 37.369 13.4437C46.318 5.39874 59.626 2.92174 72.514 6.90174ZM77.929 17.2787C83.024 20.7007 86.406 27.1377 87.024 34.5877C87.562 41.0767 86.065 41.5647 81.484 36.3907C79.78 34.4647 77.784 33.0907 77.05 33.3357C65.986 37.0367 61.207 37.8917 51.575 37.8917C43.514 37.8917 40.566 38.2707 38.595 39.5627C36.422 40.9867 35.912 41.0237 35.146 39.8127C33.84 37.7487 34.012 34.8457 35.744 29.7637C37.762 23.8417 42.18 18.6267 47.443 15.9527C51.214 14.0377 53.009 13.8217 62.716 14.1157C72.85 14.4227 74.048 14.6717 77.929 17.2787ZM79.869 41.8917C81.748 43.5417 83.72 44.8917 84.251 44.8917C84.804 44.8917 85.2 48.8377 85.178 54.1417L85.14 63.3917L81.012 66.2507C77.248 68.8567 76.558 69.0117 73.184 68.0007C71.149 67.3907 67.19 66.8917 64.385 66.8917C58.724 66.8917 57.216 68.3247 57.216 73.7037C57.216 77.9557 59.329 79.1347 67.936 79.6877L75.584 80.1787L72.844 82.5347C68.942 85.8917 63.103 85.6817 55.626 81.9147C48.791 78.4717 44.612 74.7777 40.026 68.1257C37.306 64.1807 36.698 62.2697 36.377 56.6558C36.165 52.9518 36.252 48.8847 36.569 47.6197C37.41 44.2707 42.336 42.9007 53.787 42.8307C60.617 42.7887 65.432 42.1967 69.216 40.9327C76.475 38.5097 75.965 38.4637 79.869 41.8917ZM31.181 42.8257C31.75 43.8897 32.216 50.4257 32.216 57.3507V69.9417L29.647 70.9177C26.172 72.2387 22.595 71.1887 20.2 68.1447C18.511 65.9967 18.216 64.0807 18.216 55.2567C18.216 46.2247 18.473 44.6347 20.216 42.8917C22.946 40.1617 29.733 40.1217 31.181 42.8257ZM101.57 43.3437C104.072 45.6627 104.216 46.3097 104.216 55.2677C104.216 63.8908 103.994 65.0017 101.736 67.6857C99.239 70.6527 94.53 72.3327 91.727 71.2577C90.484 70.7807 90.216 68.3187 90.216 57.3667C90.216 50.0457 90.489 43.3437 90.823 42.4737C91.814 39.8897 98.421 40.4247 101.57 43.3437ZM84.627 72.2637C83.722 74.6217 64.07 76.0817 62.716 73.8917C62.323 73.2557 65.306 72.8657 70.907 72.8217C75.752 72.7827 80.616 72.3647 81.716 71.8917C84.617 70.6447 85.218 70.7217 84.627 72.2637ZM56.015 88.0627C61.54 90.2817 66.519 90.6997 71.626 89.3757C77.194 87.9307 78.216 88.1487 78.216 90.7767C78.216 95.0877 69.033 99.8917 60.79 99.8917C55.263 99.8917 46.994 96.5137 43.751 92.9307C42.152 91.1637 42.142 90.8357 43.616 88.7307C44.496 87.4747 45.216 85.4157 45.216 84.1567V81.8667L49.265 84.4227C51.491 85.8277 54.529 87.4667 56.015 88.0627ZM40.302 96.2527C45.965 102.686 52.612 105.246 62.172 104.674C71.174 104.136 76.491 101.725 81.449 95.9327L84.897 91.9047L90.306 93.4837C106.36 98.1697 114.654 108.871 115.422 125.892L115.716 132.392L60.466 132.65L5.216 132.909L5.222 126.15C5.225 122.433 5.68701 117.737 6.24901 115.715C7.73001 110.38 13.096 102.889 17.779 99.6147C21.301 97.1537 33.044 92.0957 35.59 91.9437C36.071 91.9147 38.191 93.8537 40.302 96.2527Z" fill="black"/>
</svg>
