<svg xmlns="http://www.w3.org/2000/svg" xmlns:xlink="http://www.w3.org/1999/xlink" width="800" zoomAndPan="magnify" viewBox="0 0 600 599.999999" height="800" preserveAspectRatio="xMidYMid meet" version="1.0"><defs><clipPath id="2a16ba7225"><path d="M 82.125 0 L 517 0 L 517 600 L 82.125 600 Z M 82.125 0 " clip-rule="nonzero"/></clipPath></defs><g clip-path="url(#2a16ba7225)"><path fill="#000000" d="M 410.324219 390.96875 C 395.804688 384.195312 383.226562 377.417969 370.644531 370.644531 L 370.644531 324.195312 C 389.03125 306.773438 403.546875 281.613281 413.226562 251.613281 C 415.160156 251.613281 416.128906 252.582031 418.066406 252.582031 L 450 252.582031 C 461.613281 252.582031 471.289062 242.902344 471.289062 231.289062 L 471.289062 165.484375 C 471.289062 158.710938 468.386719 152.902344 463.546875 149.03125 C 450.96875 64.839844 380.324219 0 300 0 C 219.675781 0 149.03125 64.839844 136.453125 148.066406 C 131.613281 151.933594 128.710938 157.742188 128.710938 164.515625 L 128.710938 230.324219 C 128.710938 239.03125 133.546875 245.804688 141.289062 249.675781 C 142.257812 261.289062 146.128906 271.933594 153.871094 279.675781 C 162.582031 289.355469 176.128906 294.195312 191.613281 294.195312 L 205.160156 294.195312 C 211.933594 305.804688 219.675781 315.484375 228.386719 324.195312 L 228.386719 370.644531 C 216.773438 377.417969 203.226562 384.195312 188.710938 390.96875 C 139.355469 415.160156 82.257812 444.195312 82.257812 503.226562 L 82.257812 590.324219 C 82.257812 596.128906 86.128906 600 91.933594 600 L 507.097656 600 C 512.902344 600 516.773438 596.128906 516.773438 590.324219 L 516.773438 503.226562 C 517.742188 444.195312 460.644531 415.160156 410.324219 390.96875 Z M 391.933594 403.546875 L 363.871094 464.515625 L 315.484375 431.613281 L 362.902344 387.097656 C 371.613281 392.902344 381.289062 397.742188 391.933594 403.546875 Z M 300 419.03125 L 248.710938 370.644531 L 248.710938 338.710938 C 264.195312 348.386719 281.613281 354.195312 300 354.195312 C 318.386719 354.195312 335.804688 348.386719 351.289062 338.710938 L 351.289062 370.644531 Z M 451.933594 163.546875 L 451.933594 229.355469 C 451.933594 230.324219 450.96875 231.289062 450 231.289062 L 418.066406 231.289062 C 417.097656 231.289062 416.128906 230.324219 416.128906 229.355469 L 416.128906 163.546875 C 416.128906 162.582031 417.097656 161.613281 418.066406 161.613281 L 450 161.613281 C 450.96875 161.613281 451.933594 162.582031 451.933594 163.546875 Z M 300 19.355469 C 366.773438 19.355469 428.710938 73.546875 443.226562 142.257812 L 421.933594 142.257812 C 410.324219 85.160156 359.03125 42.582031 300 42.582031 C 240.96875 42.582031 189.675781 85.160156 178.066406 142.257812 L 156.773438 142.257812 C 171.289062 73.546875 233.226562 19.355469 300 19.355469 Z M 150.96875 232.257812 C 150 232.257812 149.03125 231.289062 149.03125 230.324219 L 149.03125 164.515625 C 149.03125 163.546875 150 162.582031 150.96875 162.582031 L 182.902344 162.582031 C 183.871094 162.582031 184.839844 163.546875 184.839844 164.515625 L 184.839844 230.324219 C 184.839844 231.289062 183.871094 232.257812 182.902344 232.257812 Z M 191.613281 273.871094 C 185.804688 273.871094 175.160156 272.902344 167.417969 265.160156 C 163.546875 261.289062 161.613281 256.453125 160.644531 250.644531 L 181.933594 250.644531 C 183.871094 250.644531 184.839844 250.644531 186.773438 249.675781 C 189.675781 257.417969 192.582031 265.160156 195.484375 272.902344 L 191.613281 272.902344 Z M 300 61.933594 C 351.289062 61.933594 393.871094 98.710938 403.546875 148.066406 C 398.710938 151.933594 395.804688 157.742188 395.804688 164.515625 L 395.804688 173.226562 C 339.675781 176.128906 287.417969 174.195312 252.582031 133.546875 C 250.644531 130.644531 246.773438 129.675781 243.871094 130.644531 C 240.96875 131.613281 238.066406 133.546875 236.128906 136.453125 C 225.484375 160.644531 217.742188 173.226562 203.226562 180 L 203.226562 165.484375 C 203.226562 158.710938 200.324219 153.871094 195.484375 149.03125 C 206.128906 98.710938 248.710938 61.933594 300 61.933594 Z M 228.386719 293.226562 L 253.546875 293.226562 C 257.417969 303.871094 268.066406 312.582031 280.644531 312.582031 C 296.128906 312.582031 309.675781 300 309.675781 283.546875 C 309.675781 267.097656 297.097656 254.515625 280.644531 254.515625 C 268.066406 254.515625 257.417969 262.257812 253.546875 273.871094 L 216.773438 273.871094 C 210.96875 262.257812 206.128906 249.675781 202.257812 236.128906 C 203.226562 234.195312 203.226562 232.257812 203.226562 229.355469 L 203.226562 199.355469 C 226.453125 191.613281 238.066406 176.128906 247.742188 155.804688 C 286.453125 191.613281 341.613281 194.515625 394.839844 191.613281 L 394.839844 229.355469 C 394.839844 231.289062 394.839844 233.226562 395.804688 236.128906 C 380.324219 296.128906 342.582031 333.871094 299.03125 333.871094 C 272.902344 334.839844 247.742188 319.355469 228.386719 293.226562 Z M 271.933594 283.546875 C 271.933594 278.710938 275.804688 273.871094 281.613281 273.871094 C 287.417969 273.871094 291.289062 277.742188 291.289062 283.546875 C 291.289062 289.355469 287.417969 293.226562 281.613281 293.226562 C 275.804688 293.226562 271.933594 289.355469 271.933594 283.546875 Z M 237.097656 387.097656 L 284.515625 431.613281 L 236.128906 464.515625 L 208.066406 403.546875 C 218.710938 397.742188 228.386719 392.902344 237.097656 387.097656 Z M 101.613281 503.226562 C 101.613281 458.710938 145.160156 434.515625 190.644531 412.257812 L 222.582031 482.902344 C 223.546875 485.804688 226.453125 487.742188 228.386719 487.742188 C 229.355469 487.742188 230.324219 487.742188 231.289062 487.742188 C 233.226562 487.742188 235.160156 486.773438 237.097656 485.804688 L 290.324219 450 L 290.324219 580.644531 L 101.613281 580.644531 Z M 498.386719 580.644531 L 309.675781 580.644531 L 309.675781 450.96875 L 362.902344 486.773438 C 364.839844 487.742188 366.773438 488.710938 368.710938 488.710938 C 369.675781 488.710938 370.644531 488.710938 371.613281 488.710938 C 374.515625 487.742188 376.453125 485.804688 377.417969 483.871094 L 409.355469 413.226562 C 453.871094 435.484375 498.386719 459.675781 498.386719 504.195312 Z M 498.386719 580.644531 " fill-opacity="1" fill-rule="nonzero"/></g><path fill="#000000" d="M 439.355469 511.933594 L 428.710938 511.933594 L 428.710938 501.289062 C 428.710938 495.484375 424.839844 491.613281 419.03125 491.613281 C 413.226562 491.613281 409.355469 495.484375 409.355469 501.289062 L 409.355469 511.933594 L 398.710938 511.933594 C 392.902344 511.933594 389.03125 515.804688 389.03125 521.613281 C 389.03125 527.417969 392.902344 531.289062 398.710938 531.289062 L 409.355469 531.289062 L 409.355469 541.933594 C 409.355469 547.742188 413.226562 551.613281 419.03125 551.613281 C 424.839844 551.613281 428.710938 547.742188 428.710938 541.933594 L 428.710938 531.289062 L 439.355469 531.289062 C 445.160156 531.289062 449.03125 527.417969 449.03125 521.613281 C 449.03125 515.804688 445.160156 511.933594 439.355469 511.933594 Z M 439.355469 511.933594 " fill-opacity="1" fill-rule="nonzero"/></svg>