<svg width="132" height="121" viewBox="0 0 132 121" fill="none" xmlns="http://www.w3.org/2000/svg">
<path fill-rule="evenodd" clip-rule="evenodd" d="M44.2695 1.45916C42.6095 2.18216 39.8185 4.4062 38.0675 6.4002C35.7325 9.0602 33.7805 10.2032 30.7435 10.6882C25.7855 11.4812 21.0405 15.2182 19.1025 19.8562C18.3245 21.7172 15.9665 24.8882 13.8625 26.9032C10.9525 29.6882 9.76653 31.8391 8.90753 35.8891C8.28653 38.8172 6.62553 42.7232 5.21753 44.5702C3.61153 46.6752 2.32454 50.0982 1.76654 53.7462C1.27754 56.9472 0.585536 61.1831 0.227536 63.1601C-0.328464 66.2311 0.0165167 67.2552 2.59552 70.1932C5.06552 73.0062 5.60149 74.4772 5.54449 78.2832C5.45949 83.8692 7.3895 87.1572 12.7315 90.5292C15.9375 92.5532 16.9095 93.9692 18.2455 98.5652C19.9265 104.346 24.8795 110.406 29.8185 112.724C48.7725 121.616 53.0055 122.183 59.3715 116.68L63.2885 113.295L63.5645 60.5442C63.8695 2.27618 64.1395 4.88316 57.4625 1.71416C53.3205 -0.25084 48.4125 -0.345845 44.2695 1.45916ZM75.2885 1.01915C74.1885 1.47415 72.1635 3.05618 70.7885 4.53618L68.2885 7.22515L68.0125 58.7342C67.7385 109.733 67.7565 110.278 69.8585 113.678C73.6925 119.882 83.1915 122.446 88.8195 118.798C90.1775 117.917 93.8295 116.252 96.9355 115.098C105.486 111.919 111.232 106.036 113.399 98.2402C114.94 92.6972 115.609 91.6872 118.82 90.0492C123.782 87.5172 126.212 83.5822 126.254 78.0082C126.28 74.4922 126.938 72.6792 129.127 70.0772C131.452 67.3122 131.865 66.0591 131.415 63.1341C131.113 61.1711 130.49 57.0902 130.028 54.0652C129.139 48.2342 127.845 45.1872 125.398 43.1562C124.574 42.4712 123.376 39.3581 122.737 36.2381C121.782 31.5781 120.802 29.8412 117.248 26.5072C114.869 24.2752 112.631 21.2872 112.274 19.8662C111.307 16.0122 106.568 12.0272 101.648 10.9312C98.7745 10.2902 95.9245 8.63418 93.2885 6.07018C87.5195 0.462179 81.0355 -1.35785 75.2885 1.01915ZM55.1045 6.2152C57.9935 7.7352 58.7545 9.00619 58.7735 12.3352L58.7885 15.1062L54.8805 13.1122C52.7305 12.0152 49.1305 10.8242 46.8805 10.4642C42.0915 9.69816 41.7405 8.6972 45.5385 6.6372C48.8795 4.8252 52.1865 4.6792 55.1045 6.2152ZM85.8385 6.59117C87.4605 7.43017 88.7865 8.44217 88.7835 8.84117C88.7805 9.23917 85.9675 10.2772 82.5335 11.1482C79.0985 12.0192 75.5005 13.0792 74.5385 13.5052C71.8015 14.7162 72.3025 10.4612 75.2435 7.52019C78.0555 4.70719 81.5945 4.39617 85.8385 6.59117ZM51.3665 17.4792C58.0595 19.8132 58.2985 20.0122 58.5985 23.4792C58.9585 27.6372 58.5585 27.7342 51.8755 25.0992C43.6655 21.8632 38.7885 24.6702 38.7885 32.6312C38.7885 35.6632 39.5745 37.1142 43.1565 40.6972C47.7405 45.2812 50.4295 46.1652 51.4765 43.4352C51.9085 42.3092 50.8165 40.7372 47.9455 38.3522C45.1415 36.0232 43.7885 34.1022 43.7885 32.4512C43.7885 29.0652 45.3465 28.7922 52.2885 30.9592L58.2885 32.8322L58.5845 38.8932L58.8815 44.9542L55.2335 44.3622C52.0355 43.8432 51.6285 44.0052 51.9375 45.6682C52.1315 46.7112 53.7525 48.2092 55.5395 48.9952C58.1115 50.1282 58.7885 51.0202 58.7885 53.2792V56.1332L48.0385 55.8492L37.2885 55.5652L36.9755 51.1972C36.7325 47.8102 37.1485 46.3102 38.8295 44.5212C41.5825 41.5902 40.6725 39.7052 37.2565 41.2612C35.2225 42.1882 34.4335 42.0542 32.6995 40.4852C28.0845 36.3082 27.1995 30.4132 30.6295 26.6972C31.7115 25.5242 33.3325 22.7811 34.2315 20.6001C35.1305 18.4191 36.4115 16.2892 37.0775 15.8652C39.2855 14.4622 44.3585 15.0352 51.3665 17.4792ZM94.1425 17.5172C95.5975 18.8662 96.7885 20.6702 96.7885 21.5262C96.7885 22.3832 98.1495 24.5072 99.8135 26.2482C103.761 30.3782 104.399 33.2232 102.212 36.9252C99.8075 40.9962 96.3735 42.7962 94.2985 41.0732C92.1135 39.2602 91.2445 40.5772 92.6265 43.6082C93.2655 45.0112 93.7885 48.3882 93.7885 51.1122V56.0652H83.2885H72.7885V44.6471V33.2282L79.2645 31.0732C82.8265 29.8882 86.2015 29.2022 86.7645 29.5502C88.9705 30.9132 87.6615 34.6372 83.7075 38.2522C79.8635 41.7662 78.8525 44.9212 81.3085 45.7392C81.8695 45.9252 84.5015 44.1632 87.1565 41.8222C91.3655 38.1122 92.0545 36.9521 92.5195 32.7901C93.4505 24.4711 88.8285 21.7832 79.2545 25.0772C76.0755 26.1702 73.3205 27.0652 73.1315 27.0652C72.4715 27.0652 72.8255 21.5552 73.5535 20.5122C74.6735 18.9072 84.8865 15.2032 88.3925 15.1302C90.3675 15.0892 92.4585 15.9572 94.1425 17.5172ZM30.7885 17.2602C30.7885 18.6202 25.8375 24.0652 24.6015 24.0652C22.7485 24.0652 23.9795 20.0602 26.4235 18.1382C29.4055 15.7922 30.7885 15.5142 30.7885 17.2602ZM105.655 18.1532C107.964 20.6312 108.968 23.8362 107.684 24.6302C106.459 25.3872 100.789 19.6412 100.789 17.6422C100.789 15.4152 103.356 15.6852 105.655 18.1532ZM24.7555 31.3742C24.7115 34.3102 17.4645 41.5382 15.3715 40.7352C13.2545 39.9232 13.3745 35.1602 15.5845 32.2892C17.2775 30.0902 22.5025 27.9122 24.0385 28.7662C24.4515 28.9952 24.7735 30.1692 24.7555 31.3742ZM115.764 31.7622C118.003 34.6082 118.236 40.1001 116.147 40.7851C114.407 41.3561 107.808 33.8702 107.798 31.3152C107.785 27.9132 112.965 28.2032 115.764 31.7622ZM29.9115 45.5952C32.2545 48.8332 32.7005 50.2572 32.1825 52.8452L31.5385 56.0652H22.7705C15.5595 56.0652 13.8905 56.3572 13.3715 57.7082C13.0255 58.6122 13.0125 59.6242 13.3435 59.9582C13.6745 60.2922 18.0725 60.7902 23.1175 61.0652C32.1245 61.5562 32.2935 61.6122 32.5925 64.1892C32.9645 67.3982 30.2115 70.4892 27.9095 69.4452C25.0285 68.1392 16.6405 67.8131 15.4915 68.9621C13.5965 70.8571 9.25549 70.1912 6.85449 67.6352C4.70449 65.3462 4.6595 65.0302 6.0885 62.1651C7.0415 60.2551 7.41153 57.6752 7.08453 55.2322C6.34553 49.7232 9.00851 45.7352 12.8615 46.5812C15.8215 47.2312 20.4705 45.3582 22.7695 42.5882C24.7145 40.2442 26.6225 41.0472 29.9115 45.5952ZM107.789 42.0452C107.789 43.6832 115.485 47.0652 119.214 47.0652C123.494 47.0652 124.971 49.3072 124.662 55.3342C124.543 57.6612 125.019 60.6342 125.719 61.9402C126.815 63.9832 126.717 64.6812 125.017 66.9402C122.955 69.6792 121.48 69.8782 113.517 68.4962C111.258 68.1042 108.529 68.3442 106.716 69.0952C102.253 70.9442 98.7885 68.8902 98.7885 64.3962V61.0652H108.289C113.856 61.0652 117.851 60.6512 117.939 60.0652C118.447 56.6822 118.165 56.5582 108.789 56.0652L99.2885 55.5652L98.9755 51.7782C98.7115 48.5772 99.2005 47.4532 102.126 44.5282C105.539 41.1152 107.789 40.1282 107.789 42.0452ZM58.7885 64.9182V68.7712L53.9545 68.3072C46.9455 67.6332 43.4205 69.7372 41.7885 75.5652C39.8315 82.5542 41.6035 87.3582 47.5225 91.1112C50.0635 92.7222 53.6375 94.3212 55.4655 94.6642C58.4535 95.2252 58.7885 95.6302 58.7885 98.6762V102.065H53.1545C44.4335 102.065 39.7835 100.298 38.1375 96.3582C37.3765 94.5382 37.0365 91.9272 37.3795 90.5572C37.9165 88.4182 37.6645 88.0652 35.5965 88.0652C32.0955 88.0652 30.7885 86.2322 30.7885 81.3202C30.7885 75.8172 34.0645 72.0132 38.1335 72.7912C41.1565 73.3692 41.8355 71.1792 39.2885 69.0652C38.4635 68.3802 37.7885 66.3002 37.7885 64.4432V61.0652H48.2885H58.7885V64.9182ZM93.7885 64.2362C93.7885 65.9802 93.0695 68.2021 92.1905 69.1731C90.1285 71.4511 91.2485 73.2392 94.2635 72.4822C95.8935 72.0732 97.2705 72.5471 98.7505 74.0271C100.523 75.7991 100.834 77.1321 100.586 81.8631C100.292 87.4951 100.248 87.5692 97.0355 87.8792C94.1855 88.1532 93.8546 88.4802 94.3646 90.5132C94.7136 91.9022 94.1325 94.4312 92.9185 96.8102C90.6785 101.202 88.3105 102.033 77.9755 102.054L72.6615 102.065L72.9755 98.8692C73.2595 95.9692 73.8455 95.4592 79.2885 93.3802C87.2855 90.3252 90.7885 86.4372 90.7885 80.6142C90.7885 71.6232 87.1165 68.0652 77.8385 68.0652H72.7885V64.5652V61.0652H83.2885H93.7885V64.2362ZM112.634 73.4992C114.094 74.2882 116.477 75.1842 117.929 75.4912C121.116 76.1632 122.064 78.2112 120.767 81.6222C119.64 84.5882 114.43 87.0652 109.32 87.0652H105.789L105.774 82.3152C105.767 79.7032 105.5 76.5891 105.18 75.3971C104.722 73.6901 105.098 73.1342 106.944 72.7832C108.234 72.5382 109.444 72.2762 109.634 72.2012C109.824 72.1262 111.174 72.7102 112.634 73.4992ZM26.4185 75.3152C26.0875 76.5522 25.8095 79.7032 25.8025 82.3152L25.7885 87.0652L21.5385 87.0502C16.2285 87.0322 12.6575 85.2772 11.0315 81.8852C9.40349 78.4892 10.3465 76.1862 13.6485 75.4972C15.1005 75.1942 16.9635 74.5492 17.7885 74.0642C18.6135 73.5792 21.0285 73.1562 23.1555 73.1242C26.6875 73.0702 26.9695 73.2592 26.4185 75.3152ZM57.2065 73.6722C58.4645 74.1552 58.7885 75.8972 58.7885 82.1722C58.7885 91.0042 58.6755 91.1052 52.1195 88.1282C45.6415 85.1872 44.0505 80.5442 47.8615 75.7002C49.9145 73.0902 53.6035 72.2892 57.2065 73.6722ZM83.7885 75.0652C86.3195 77.5962 86.4345 83.1702 84.0015 85.3722C82.1415 87.0562 75.6125 90.0652 73.8205 90.0652C72.6825 90.0652 72.3415 74.8452 73.4555 73.7322C74.9655 72.2222 81.8315 73.1082 83.7885 75.0652ZM31.1265 94.6731C32.5535 96.2131 33.3465 98.0401 33.0605 99.1311C32.7945 100.149 33.5245 102.186 34.6825 103.658C37.0645 106.686 37.4635 110.065 35.4385 110.065C34.6965 110.065 32.1865 108.687 29.8615 107.003C25.8355 104.087 23.7455 100.725 22.2475 94.7602C21.6085 92.2112 21.7645 92.0652 25.1395 92.0652C27.7005 92.0652 29.3905 92.8011 31.1265 94.6731ZM109.789 92.3832C109.789 92.5592 109.099 95.0241 108.256 97.8631C107.036 101.971 105.783 103.741 102.112 106.544C99.5755 108.481 96.8905 110.065 96.1445 110.065C94.1545 110.065 94.5325 105.949 96.7885 103.065C97.8645 101.69 98.7545 99.6372 98.7665 98.5042C98.8025 95.1512 102.426 92.0652 106.327 92.0652C108.231 92.0652 109.789 92.2082 109.789 92.3832ZM58.7065 107.701C58.9365 107.903 58.5375 109.166 57.8185 110.508C53.9395 117.756 41.7885 116.21 41.7885 108.468C41.7885 106.318 42.0265 106.27 50.0385 106.794C54.5765 107.091 58.4765 107.499 58.7065 107.701ZM90.7885 106.597C90.7885 106.89 90.1615 108.629 89.3965 110.462C87.7725 114.348 83.0985 116.513 79.3825 115.101C77.0885 114.229 72.7885 109.581 72.7885 107.974C72.7885 107.522 76.0515 106.997 80.0385 106.808C84.0255 106.618 88.0765 106.373 89.0385 106.264C90.0005 106.154 90.7885 106.304 90.7885 106.597Z" fill="black"/>
</svg>
