<svg width="149" height="128" viewBox="0 0 149 128" fill="none" xmlns="http://www.w3.org/2000/svg">
<path fill-rule="evenodd" clip-rule="evenodd" d="M68.3081 1.8666C66.5551 2.9356 64.6431 4.7036 64.0581 5.7976C62.2871 9.1066 62.7731 16.7976 64.9461 19.8496L66.8991 22.5916L63.4921 24.2166C58.3571 26.6646 56.8611 30.4666 57.2041 40.1946L57.4941 48.4166L74.6211 48.6896C94.0151 48.9986 92.9501 49.4866 92.9801 40.2916C93.0091 31.7176 90.5021 26.7016 84.5081 23.3356C82.6281 22.2796 82.6351 22.1886 84.7881 19.4506C89.1531 13.9016 86.8571 4.5036 80.3871 1.4326C76.0801 -0.611398 72.1401 -0.469399 68.3081 1.8666ZM79.9941 6.9166C82.4151 9.3376 82.5881 14.0796 80.3791 17.4516C79.1401 19.3426 77.8951 19.9166 75.0341 19.9166C70.7661 19.9166 68.3211 17.8016 67.4281 13.3356C66.0791 6.5896 75.0731 1.9956 79.9941 6.9166ZM52.4461 15.7226C45.5951 18.5896 39.4221 22.6656 35.9631 26.6046C32.6981 30.3226 32.5791 30.3646 26.0761 30.0676C20.5201 29.8146 18.9521 30.1336 16.0181 32.1156C5.94407 38.9216 4.46207 51.5306 12.7241 60.1566C14.1671 61.6626 15.1561 63.0126 14.9211 63.1566C14.6861 63.2996 12.6941 64.3706 10.4941 65.5376C2.95809 69.5326 0.00906956 76.3046 6.95559e-05 89.6316C-0.00493044 96.7326 0.256109 97.9866 1.92811 98.8816C2.99211 99.4506 8.95511 99.9336 15.1781 99.9546L26.4941 99.9926L29.1581 103.848C33.7081 110.432 43.9941 116.18 43.9941 112.139C43.9941 111.677 41.5191 109.162 38.4941 106.55C35.4691 103.939 32.9941 101.378 32.9941 100.859C32.9941 100.341 36.3421 99.9166 40.4351 99.9166C45.3071 99.9166 48.1441 99.4846 48.6521 98.6666C49.0791 97.9796 49.2931 92.6916 49.1291 86.9166C48.8881 78.4946 48.4151 75.6766 46.7351 72.6806C44.6801 69.0136 38.5471 63.9166 36.1901 63.9166C34.3341 63.9166 34.7771 62.1816 37.0381 60.5986C40.0261 58.5056 42.9941 52.0646 42.9941 47.6726C42.9941 43.1856 40.9571 37.8666 38.0401 34.7356C36.8981 33.5096 36.1181 32.0446 36.3061 31.4796C36.9661 29.4996 48.8391 22.1296 54.1401 20.4086C60.5201 18.3376 61.2591 17.7706 60.4201 15.5836C59.6251 13.5126 57.6431 13.5476 52.4461 15.7226ZM90.3771 15.3606C89.5251 17.5806 91.3431 19.4036 95.7321 20.7286C97.8011 21.3536 101.93 23.4736 104.908 25.4406C109.564 28.5176 110.519 28.8206 111.731 27.6086C112.942 26.3966 112.59 25.7646 109.214 23.0906C105.261 19.9606 97.4171 15.7216 93.2391 14.4596C91.6541 13.9806 90.8041 14.2486 90.3771 15.3606ZM81.4601 27.3376C85.9011 29.1936 88.1871 33.6596 87.7971 39.7186L87.4941 44.4166L74.7441 44.6096L61.9941 44.8036V38.5466C61.9941 33.0096 62.3101 31.9966 64.7441 29.7286C66.2571 28.3196 68.1691 26.9206 68.9941 26.6206C71.8781 25.5706 78.0861 25.9286 81.4601 27.3376ZM115.405 31.8076C105.548 37.8186 103.315 52.0596 111.065 59.4846C114.552 62.8256 114.674 63.5656 111.883 64.4516C108.146 65.6376 102.077 71.9586 101.019 75.7646C99.5801 80.9476 99.704 97.2266 101.194 98.7166C101.892 99.4146 105.238 99.9166 109.194 99.9166C112.934 99.9166 115.994 100.313 115.994 100.797C115.994 102.47 102.004 112.902 99.7441 112.913C99.3311 112.915 98.9911 112.13 98.9881 111.167C98.9671 104.397 93.8231 96.4876 87.4881 93.4806C85.5661 92.5686 83.9941 91.5716 83.9941 91.2636C83.9941 90.9556 85.1281 89.8126 86.5141 88.7226C94.8291 82.1816 93.9091 68.4896 84.7071 61.8236C79.8281 58.2896 74.9871 57.3026 69.9431 58.8136C56.6081 62.8086 52.1341 78.3306 61.5401 87.9636L65.2381 91.7516L60.8701 93.9796C52.8751 98.0586 50.0471 103.819 50.0161 116.085C50.0041 120.853 50.2671 125.465 50.6011 126.335C51.1301 127.713 54.1301 127.917 73.9011 127.917C90.2181 127.917 96.9311 127.58 97.7941 126.717C98.4541 126.057 98.9941 123.813 98.9941 121.73C98.9941 118.351 99.3691 117.787 102.479 116.488C107.313 114.468 114.367 108.916 118.24 104.081L121.494 100.02L133.673 99.9686C149.516 99.9006 149.41 99.9946 148.771 86.7356C148.356 78.1116 147.954 76.3926 145.397 72.3066C143.662 69.5346 140.884 66.8126 138.494 65.5426C136.294 64.3736 134.333 63.3306 134.137 63.2266C133.941 63.1216 135.143 61.5796 136.807 59.7976C147.607 48.2426 139.75 29.9236 123.994 29.9236C120.367 29.9236 117.442 30.5656 115.405 31.8076ZM31.8041 36.9426C38.7481 41.1756 39.5591 50.1476 33.5871 56.6636C30.7631 59.7456 29.6761 60.2496 25.8661 60.2496C20.7301 60.2496 16.5531 57.8976 14.4431 53.8176C8.49906 42.3236 20.8851 30.2846 31.8041 36.9426ZM130.131 36.4876C134.605 38.8016 137.413 45.6456 136.017 50.8316C134.817 55.2886 130.516 59.4236 126.065 60.4006C119.353 61.8756 112.005 55.1736 111.998 47.5706C111.988 37.8426 121.504 32.0266 130.131 36.4876ZM83.2381 67.9256C87.0741 71.7616 87.2261 72.1526 86.7581 77.0186C86.0781 84.0946 82.1721 88.0006 75.0961 88.6806C70.2301 89.1486 69.8391 88.9966 66.0031 85.1606C62.5931 81.7506 61.9941 80.5226 61.9941 76.9386C61.9941 69.1106 67.0631 63.9906 74.8621 63.9436C78.6421 63.9206 79.7681 64.4556 83.2381 67.9256ZM132.574 68.5036C134.818 69.3006 137.968 71.3226 139.574 72.9986C142.31 75.8526 142.516 76.6376 142.841 85.4806L143.187 94.9166H125.672C116.039 94.9166 107.446 94.6436 106.576 94.3096C105.367 93.8456 104.994 92.2296 104.994 87.4586C104.994 77.1036 107.264 72.4446 113.835 69.3156C121.163 65.8256 124.609 65.6756 132.574 68.5036ZM35.4581 69.5176C42.1201 72.9756 43.4941 75.7486 43.4941 85.7366V94.4166L26.4941 94.7016C17.1441 94.8586 8.59409 94.7656 7.49409 94.4956C5.62609 94.0366 5.53007 93.4086 6.03907 84.9936C6.65507 74.7966 8.13909 72.2466 15.4941 68.7516C20.6561 66.2986 29.9421 66.6556 35.4581 69.5176ZM83.4941 97.4756C91.0201 100.825 92.9941 104.392 92.9941 114.64V122.917H73.9941H54.9941V115.877C54.9941 107.962 57.3041 102.071 61.4801 99.3336C67.9641 95.0856 76.5031 94.3646 83.4941 97.4756Z" fill="black"/>
</svg>
