<svg xmlns="http://www.w3.org/2000/svg" xmlns:xlink="http://www.w3.org/1999/xlink" width="800" zoomAndPan="magnify" viewBox="0 0 600 599.999999" height="800" preserveAspectRatio="xMidYMid meet" version="1.0"><path fill="#000000" d="M 96.648438 286.132812 L 64.269531 286.132812 C 58.507812 286.132812 53.832031 281.445312 53.832031 275.6875 C 53.832031 269.925781 58.507812 265.253906 64.269531 265.253906 L 96.648438 265.253906 C 102.40625 265.253906 107.082031 269.9375 107.082031 275.699219 C 107.082031 281.457031 102.40625 286.132812 96.648438 286.132812 Z M 96.648438 286.132812 " fill-opacity="1" fill-rule="nonzero"/><path fill="#000000" d="M 177.890625 366.710938 L 165.609375 366.710938 C 159.851562 366.710938 155.175781 362.046875 155.175781 356.273438 C 155.175781 350.503906 159.851562 345.839844 165.609375 345.839844 L 177.890625 345.839844 C 183.652344 345.839844 188.328125 350.503906 188.328125 356.273438 C 188.328125 362.046875 183.652344 366.710938 177.890625 366.710938 Z M 177.890625 366.710938 " fill-opacity="1" fill-rule="nonzero"/><path fill="#000000" d="M 298.675781 599.59375 C 239.84375 599.59375 132.699219 599.59375 120.230469 523.605469 C 87.089844 526.519531 52.195312 509.175781 33.789062 479.320312 C 17.925781 453.589844 18.25 424.914062 34.175781 400.871094 C 14.933594 381.421875 5.875 354.949219 9.757812 328.289062 C 13.273438 304.101562 27.160156 283.542969 47.636719 271.535156 C 34.589844 240.429688 34.738281 206.964844 48.34375 178.308594 C 62.847656 147.777344 90.949219 126.019531 127.910156 116.503906 C 130.90625 104.191406 137.28125 94.496094 146.941406 87.589844 C 162.542969 76.433594 182.765625 75.984375 194.410156 76.863281 C 222.648438 0.03125 300.011719 15.277344 300.804688 15.464844 C 305.632812 16.488281 309.089844 20.746094 309.089844 25.679688 L 309.089844 182.304688 C 309.089844 188.078125 304.414062 192.742188 298.652344 192.742188 C 292.894531 192.742188 288.21875 188.078125 288.21875 182.304688 L 288.21875 34.914062 C 270 33.933594 227.488281 37.460938 211.617188 91.230469 C 210.082031 96.429688 204.804688 99.578125 199.511719 98.492188 C 199.285156 98.453125 174.292969 93.609375 159.003906 104.597656 C 152.378906 109.355469 148.539062 116.503906 147.265625 126.429688 C 146.703125 130.839844 143.414062 134.398438 139.0625 135.316406 C 105.234375 142.445312 79.710938 160.882812 67.179688 187.261719 C 54.992188 212.941406 56.242188 243.652344 70.632812 271.523438 C 71.96875 274.121094 72.15625 277.148438 71.164062 279.890625 C 70.175781 282.636719 68.066406 284.828125 65.375 285.945312 C 46.175781 293.949219 33.421875 310.464844 30.386719 331.285156 C 27.109375 353.855469 36.230469 376.339844 54.792969 391.460938 C 56.964844 393.234375 58.339844 395.8125 58.601562 398.609375 C 58.851562 401.414062 57.964844 404.191406 56.148438 406.332031 C 40.339844 424.863281 38.660156 447.476562 51.539062 468.375 C 65.238281 490.613281 95.570312 509.132812 127.023438 501.382812 C 130.070312 500.660156 133.292969 501.296875 135.808594 503.207031 C 138.3125 505.105469 139.824219 508.027344 139.941406 511.167969 C 141.777344 565.136719 200.140625 577.804688 288.21875 578.683594 L 288.21875 432.542969 C 288.21875 426.773438 292.894531 422.109375 298.652344 422.109375 C 304.414062 422.109375 309.089844 426.773438 309.089844 432.542969 L 309.089844 589.167969 C 309.089844 594.9375 304.414062 599.605469 298.652344 599.605469 Z M 298.675781 599.59375 " fill-opacity="1" fill-rule="nonzero"/><path fill="#000000" d="M 359.507812 15.246094 C 341.667969 15.246094 327.140625 29.761719 327.140625 47.601562 C 327.140625 61.773438 336.355469 73.722656 349.074219 78.09375 L 349.074219 186.375 C 349.074219 192.144531 353.738281 196.808594 359.507812 196.808594 C 365.28125 196.808594 369.945312 192.144531 369.945312 186.375 L 369.945312 78.09375 C 382.652344 73.722656 391.867188 61.785156 391.867188 47.601562 C 391.867188 29.761719 377.351562 15.246094 359.507812 15.246094 Z M 359.507812 15.246094 " fill-opacity="1" fill-rule="nonzero"/><path fill="#000000" d="M 369.945312 536.746094 L 369.945312 430.957031 C 369.945312 425.1875 365.28125 420.523438 359.507812 420.523438 C 353.738281 420.523438 349.074219 425.1875 349.074219 430.957031 L 349.074219 536.746094 C 336.363281 541.105469 327.140625 553.042969 327.140625 567.222656 C 327.140625 585.066406 341.667969 599.59375 359.507812 599.59375 C 377.351562 599.59375 391.867188 585.066406 391.867188 567.222656 C 391.867188 553.054688 382.652344 541.117188 369.945312 536.746094 Z M 369.945312 536.746094 " fill-opacity="1" fill-rule="nonzero"/><path fill="#000000" d="M 561.378906 275.050781 C 547.210938 275.050781 535.261719 284.265625 530.890625 296.984375 L 419.644531 296.984375 C 413.875 296.984375 409.210938 301.648438 409.210938 307.417969 C 409.210938 313.191406 413.875 317.855469 419.644531 317.855469 L 530.890625 317.855469 C 535.261719 330.5625 547.199219 339.777344 561.378906 339.777344 C 579.222656 339.777344 593.738281 325.261719 593.738281 307.417969 C 593.738281 289.574219 579.222656 275.050781 561.378906 275.050781 Z M 561.378906 275.050781 " fill-opacity="1" fill-rule="nonzero"/><path fill="#000000" d="M 419.667969 253.324219 L 452.078125 253.324219 C 454.277344 253.324219 456.417969 252.636719 458.203125 251.34375 L 523.867188 203.769531 C 528.574219 206.441406 533.9375 208.101562 539.730469 208.101562 C 557.570312 208.101562 572.085938 193.574219 572.085938 175.730469 C 572.085938 157.890625 557.570312 143.375 539.730469 143.375 C 521.886719 143.375 507.359375 157.890625 507.359375 175.730469 C 507.359375 180.136719 508.257812 184.320312 509.855469 188.148438 L 448.695312 232.464844 L 419.667969 232.464844 C 413.894531 232.464844 409.230469 237.128906 409.230469 242.902344 C 409.230469 248.671875 413.894531 253.335938 419.667969 253.335938 Z M 419.667969 253.324219 " fill-opacity="1" fill-rule="nonzero"/><path fill="#000000" d="M 539.730469 406.738281 C 533.9375 406.738281 528.585938 408.386719 523.878906 411.058594 L 458.210938 363.484375 C 456.429688 362.191406 454.289062 361.503906 452.085938 361.503906 L 419.675781 361.503906 C 413.90625 361.503906 409.242188 366.167969 409.242188 371.9375 C 409.242188 377.707031 413.90625 382.371094 419.675781 382.371094 L 448.707031 382.371094 L 509.863281 426.679688 C 508.269531 430.507812 507.371094 434.691406 507.371094 439.09375 C 507.371094 456.9375 521.894531 471.464844 539.738281 471.464844 C 557.582031 471.464844 572.097656 456.9375 572.097656 439.09375 C 572.097656 421.253906 557.582031 406.738281 539.738281 406.738281 Z M 539.730469 406.738281 " fill-opacity="1" fill-rule="nonzero"/><path fill="#000000" d="M 114.261719 320.503906 C 108.5 320.503906 103.824219 315.839844 103.824219 310.070312 C 103.824219 304.300781 108.5 299.636719 114.261719 299.636719 C 125.382812 299.636719 134.441406 290.585938 134.441406 279.453125 C 134.441406 268.320312 125.394531 259.273438 114.261719 259.273438 C 108.5 259.273438 103.824219 254.609375 103.824219 248.839844 C 103.824219 243.066406 108.5 238.402344 114.261719 238.402344 C 136.894531 238.402344 155.3125 256.820312 155.3125 279.453125 C 155.3125 302.085938 136.894531 320.503906 114.261719 320.503906 Z M 114.261719 320.503906 " fill-opacity="1" fill-rule="nonzero"/><path fill="#000000" d="M 210.082031 196.800781 C 204.324219 196.800781 199.648438 192.136719 199.648438 186.363281 C 199.648438 180.59375 204.324219 175.929688 210.082031 175.929688 C 221.207031 175.929688 230.265625 166.882812 230.265625 155.75 C 230.265625 144.617188 221.207031 135.558594 210.082031 135.558594 C 204.324219 135.558594 199.648438 130.894531 199.648438 125.125 C 199.648438 119.351562 204.324219 114.6875 210.082031 114.6875 C 232.714844 114.6875 251.132812 133.105469 251.132812 155.75 C 251.132812 178.394531 232.714844 196.800781 210.082031 196.800781 Z M 210.082031 196.800781 " fill-opacity="1" fill-rule="nonzero"/><path fill="#000000" d="M 119.050781 366.84375 C 93.976562 366.84375 73.472656 357.058594 62.285156 339.527344 C 59.1875 334.664062 60.605469 328.214844 65.46875 325.117188 C 70.320312 322.027344 76.777344 323.445312 79.878906 328.300781 C 87.589844 340.363281 103.855469 346.882812 123.359375 345.871094 C 129.015625 345.328125 134.035156 349.960938 134.347656 355.710938 C 134.660156 361.460938 130.257812 366.375 124.496094 366.699219 C 122.660156 366.804688 120.835938 366.855469 119.050781 366.855469 Z M 119.050781 366.84375 " fill-opacity="1" fill-rule="nonzero"/><path fill="#000000" d="M 175.347656 229.253906 C 151.347656 229.253906 132.082031 219.671875 120.773438 201.953125 C 117.671875 197.101562 119.09375 190.644531 123.953125 187.542969 C 128.808594 184.445312 135.265625 185.875 138.363281 190.726562 C 148.476562 206.546875 166.207031 208.894531 179.34375 208.289062 C 185.039062 207.683594 190.015625 212.378906 190.332031 218.128906 C 190.644531 223.878906 186.238281 228.792969 180.480469 229.117188 C 178.746094 229.222656 177.035156 229.261719 175.347656 229.261719 Z M 175.347656 229.253906 " fill-opacity="1" fill-rule="nonzero"/><path fill="#000000" d="M 129.570312 522 C 125.207031 522 121.136719 519.246094 119.675781 514.871094 C 117.851562 509.414062 120.792969 503.5 126.261719 501.664062 L 131.550781 499.941406 C 151.804688 493.449219 172.757812 486.730469 177.507812 451.222656 C 178.277344 445.511719 183.546875 441.539062 189.234375 442.269531 C 194.941406 443.03125 198.960938 448.277344 198.1875 453.996094 C 191.675781 502.582031 159.328125 512.953125 137.917969 519.820312 L 132.875 521.457031 C 131.78125 521.824219 130.664062 522 129.570312 522 Z M 129.570312 522 " fill-opacity="1" fill-rule="nonzero"/><path fill="#000000" d="M 216.03125 528.46875 C 213.746094 528.46875 211.441406 527.730469 209.519531 526.183594 C 205.011719 522.574219 204.292969 516.011719 207.890625 511.511719 C 229.011719 485.113281 259.460938 479.699219 298.675781 479.699219 C 304.433594 479.699219 309.109375 484.363281 309.109375 490.132812 C 309.109375 495.902344 304.433594 500.566406 298.675781 500.566406 C 257.84375 500.566406 238.351562 506.847656 224.179688 524.554688 C 222.125 527.125 219.089844 528.46875 216.03125 528.46875 Z M 216.03125 528.46875 " fill-opacity="1" fill-rule="nonzero"/><path fill="#000000" d="M 93.746094 460.601562 C 92.085938 460.601562 90.40625 460.207031 88.839844 459.382812 C 83.761719 456.65625 81.839844 450.34375 84.542969 445.253906 L 90.5 434.085938 C 101.289062 413.875 122.234375 401.320312 145.136719 401.320312 L 172.589844 401.320312 C 178.351562 401.320312 183.027344 405.984375 183.027344 411.757812 C 183.027344 417.527344 178.351562 422.191406 172.589844 422.191406 L 145.136719 422.191406 C 129.945312 422.191406 116.066406 430.519531 108.917969 443.90625 L 102.960938 455.070312 C 101.082031 458.585938 97.472656 460.589844 93.746094 460.589844 Z M 93.746094 460.601562 " fill-opacity="1" fill-rule="nonzero"/><path fill="#000000" d="M 170.304688 135.570312 L 136.882812 135.570312 C 131.125 135.570312 126.449219 130.90625 126.449219 125.132812 C 126.449219 119.363281 131.125 114.699219 136.882812 114.699219 L 170.304688 114.699219 C 176.066406 114.699219 180.742188 119.363281 180.742188 125.132812 C 180.742188 130.90625 176.066406 135.570312 170.304688 135.570312 Z M 170.304688 135.570312 " fill-opacity="1" fill-rule="nonzero"/><path fill="#000000" d="M 361.386719 208.394531 L 235.953125 208.394531 C 215.9375 208.394531 199.648438 224.683594 199.648438 244.695312 L 199.648438 370.132812 C 199.648438 390.144531 215.9375 406.433594 235.953125 406.433594 L 361.386719 406.433594 C 381.402344 406.433594 397.691406 390.144531 397.691406 370.132812 L 397.691406 244.695312 C 397.691406 224.683594 381.402344 208.394531 361.386719 208.394531 Z M 312.75 364.769531 C 311.6875 365.101562 310.613281 365.269531 309.570312 365.269531 C 305.15625 365.269531 301.054688 362.441406 299.625 358.015625 L 295.972656 346.613281 L 262.445312 346.613281 L 258.792969 358.015625 C 257.375 362.453125 253.273438 365.269531 248.847656 365.269531 C 247.792969 365.269531 246.71875 365.101562 245.667969 364.769531 C 240.175781 363.015625 237.152344 357.152344 238.90625 351.652344 L 269.257812 256.800781 C 269.351562 256.519531 269.5625 256.332031 269.675781 256.058594 C 269.949219 255.390625 270.300781 254.808594 270.710938 254.203125 C 271.085938 253.660156 271.449219 253.148438 271.910156 252.6875 C 272.367188 252.230469 272.890625 251.855469 273.433594 251.488281 C 274.027344 251.082031 274.613281 250.726562 275.28125 250.457031 C 275.550781 250.339844 275.738281 250.132812 276.019531 250.046875 C 276.386719 249.933594 276.75 249.996094 277.117188 249.921875 C 277.804688 249.777344 278.472656 249.695312 279.183594 249.695312 C 279.914062 249.695312 280.601562 249.777344 281.3125 249.933594 C 281.667969 250.007812 282.019531 249.933594 282.375 250.046875 C 282.648438 250.132812 282.835938 250.339844 283.09375 250.445312 C 283.773438 250.726562 284.378906 251.082031 284.984375 251.5 C 285.515625 251.863281 286.027344 252.230469 286.476562 252.679688 C 286.945312 253.148438 287.3125 253.660156 287.6875 254.210938 C 288.09375 254.808594 288.4375 255.390625 288.710938 256.046875 C 288.824219 256.320312 289.03125 256.507812 289.125 256.789062 L 319.480469 351.640625 C 321.234375 357.128906 318.207031 363.003906 312.730469 364.757812 Z M 358.914062 354.835938 C 358.914062 360.605469 354.25 365.269531 348.480469 365.269531 C 342.710938 365.269531 338.046875 360.605469 338.046875 354.835938 L 338.046875 259.984375 C 338.046875 254.210938 342.710938 249.546875 348.480469 249.546875 C 354.25 249.546875 358.914062 254.210938 358.914062 259.984375 Z M 358.914062 354.835938 " fill-opacity="1" fill-rule="nonzero"/><path fill="#000000" d="M 269.132812 325.742188 L 289.304688 325.742188 L 279.214844 294.230469 Z M 269.132812 325.742188 " fill-opacity="1" fill-rule="nonzero"/></svg>