<svg width="166" height="144" viewBox="0 0 166 144" fill="none" xmlns="http://www.w3.org/2000/svg">
<path fill-rule="evenodd" clip-rule="evenodd" d="M1.57101 1.57098C0.182014 2.96098 0 9.32899 0 56.524C0 94.313 0.333008 110.636 1.13901 112.405C3.49301 117.571 6.27599 118 37.469 118H66.135L62.965 123.75C57.847 133.034 53.923 136.947 48.866 137.81C45.09 138.455 44.5 138.889 44.5 141.028V143.5H83H121.5L121.816 140.75C122.079 138.469 121.738 137.986 119.816 137.917C112.275 137.645 110.465 136.154 103.537 124.5L99.97 118.5L129.735 118C160.65 117.481 162.761 117.184 164.977 113.043C165.638 111.807 166 91.857 166 56.601C166 3.71201 165.942 2.03897 164.066 1.03497C162.779 0.346973 135.522 0 82.637 0C11.703 0 2.97401 0.168984 1.57101 1.57098ZM160 46.5V87H83H6V46.5V6H83H160V46.5ZM37.362 20.5C37.045 21.325 37.045 22.675 37.362 23.5C37.855 24.786 42.133 25 67.401 25C95.943 25 96.885 24.938 97.497 23.009C97.845 21.914 97.848 20.564 97.506 20.009C97.109 19.367 86.153 19 67.41 19C42.134 19 37.855 19.214 37.362 20.5ZM37.362 47.5C37.045 48.325 37.045 49.675 37.362 50.5C38.218 52.731 84.138 52.743 85.989 50.513C86.668 49.695 86.963 48.345 86.643 47.513C85.775 45.251 38.23 45.238 37.362 47.5ZM37.17 72.75C34.98 77.008 34.893 77 84.615 77C126.046 77 132.136 76.808 132.643 75.487C132.963 74.655 132.668 73.305 131.989 72.487C130.929 71.21 124.21 71 84.413 71C41.287 71 38.008 71.121 37.17 72.75ZM159.788 102.25L159.5 111.5L84.11 111.756C29.247 111.943 8.34999 111.705 7.35999 110.884C6.41099 110.097 6 107.221 6 101.378V93H83.038H160.075L159.788 102.25ZM98.75 127.429C101.638 132.591 104 137.081 104 137.407C104 137.733 94.55 138 83 138C71.45 138 62 137.651 62 137.224C62 136.797 63.965 133.291 66.367 129.431C68.769 125.572 71.049 121.421 71.434 120.207C72.1 118.111 72.67 118.001 82.817 118.022L93.5 118.044L98.75 127.429Z" fill="black"/>
</svg>
