<svg xmlns="http://www.w3.org/2000/svg" xmlns:xlink="http://www.w3.org/1999/xlink" width="800" zoomAndPan="magnify" viewBox="0 0 600 599.999999" height="800" preserveAspectRatio="xMidYMid meet" version="1.0"><defs><clipPath id="ec501d3fff"><path d="M 180 500 L 420 500 L 420 586.359375 L 180 586.359375 Z M 180 500 " clip-rule="nonzero"/></clipPath><clipPath id="f0f2a7c202"><path d="M 172 13.359375 L 313 13.359375 L 313 154 L 172 154 Z M 172 13.359375 " clip-rule="nonzero"/></clipPath></defs><path fill="#000000" d="M 574.425781 82.558594 L 490.632812 82.558594 C 499.132812 91.664062 499.738281 106.230469 491.84375 115.941406 L 491.238281 117.15625 L 553.78125 117.15625 L 553.78125 409.726562 L 46.148438 409.726562 L 46.148438 117.15625 L 158.484375 117.15625 L 154.234375 105.625 C 151.804688 97.730469 153.019531 89.234375 157.875 82.558594 L 25.503906 82.558594 C 17.609375 82.558594 11.539062 88.628906 11.539062 96.519531 L 11.539062 468.605469 C 11.539062 476.496094 17.609375 482.566406 25.503906 482.566406 L 574.425781 482.566406 C 582.320312 482.566406 588.394531 476.496094 588.394531 468.605469 L 588.394531 96.519531 C 588.390625 88.628906 582.320312 82.558594 574.425781 82.558594 Z M 299.964844 463.75 C 290.25 463.75 282.355469 455.855469 282.355469 446.144531 C 282.355469 436.433594 290.25 428.542969 299.964844 428.542969 C 309.679688 428.542969 317.574219 436.433594 317.574219 446.144531 C 317.574219 455.25 309.679688 463.75 299.964844 463.75 Z M 299.964844 463.75 " fill-opacity="1" fill-rule="nonzero"/><g clip-path="url(#ec501d3fff)"><path fill="#000000" d="M 419.585938 567.542969 L 419.585938 580.898438 C 419.585938 583.933594 417.15625 586.359375 414.121094 586.359375 L 185.808594 586.359375 C 182.773438 586.359375 180.34375 583.933594 180.34375 580.898438 L 180.34375 567.542969 C 180.34375 564.507812 182.773438 562.082031 185.808594 562.082031 L 226.492188 562.082031 L 237.421875 500.773438 L 363.117188 500.773438 L 374.046875 562.082031 L 414.730469 562.082031 C 417.15625 562.082031 419.585938 564.507812 419.585938 567.542969 Z M 419.585938 567.542969 " fill-opacity="1" fill-rule="nonzero"/></g><path fill="#000000" d="M 491.238281 141.4375 L 476.664062 139.613281 C 471.199219 139.007812 466.34375 135.367188 463.914062 129.902344 C 462.089844 124.441406 462.699219 118.976562 465.734375 114.121094 L 474.84375 102.589844 C 476.058594 100.765625 476.058594 98.339844 474.234375 96.519531 L 459.054688 81.34375 C 457.234375 79.523438 454.804688 79.523438 452.984375 80.738281 L 441.445312 89.839844 C 437.195312 93.484375 431.125 94.089844 425.660156 91.664062 C 420.195312 89.839844 416.550781 84.984375 415.945312 79.523438 L 415.335938 65.5625 C 415.335938 63.132812 412.90625 61.3125 411.085938 61.3125 L 389.226562 61.3125 C 386.796875 61.3125 384.976562 63.132812 384.976562 65.5625 L 383.152344 80.128906 C 382.546875 85.59375 378.902344 90.449219 373.4375 92.269531 C 367.972656 94.699219 362.507812 94.089844 357.652344 90.449219 L 346.113281 81.34375 C 344.292969 80.128906 341.863281 80.128906 340.042969 81.949219 L 324.859375 97.125 C 323.039062 98.945312 323.039062 101.375 324.253906 103.195312 L 333.363281 114.726562 C 337.003906 118.976562 337.613281 125.046875 335.183594 130.511719 C 332.753906 135.972656 328.503906 139.613281 322.433594 140.222656 L 307.859375 142.042969 C 305.429688 142.042969 303.609375 144.472656 303.609375 146.292969 L 303.609375 168.144531 C 303.609375 170.570312 305.429688 172.390625 307.859375 172.390625 L 322.433594 174.214844 C 327.898438 174.820312 332.753906 178.460938 335.183594 183.925781 C 337.613281 189.386719 336.398438 194.851562 333.363281 199.707031 L 324.253906 210.632812 C 323.039062 212.453125 323.039062 214.882812 324.859375 216.703125 L 340.042969 231.878906 C 341.863281 233.699219 344.292969 233.699219 346.113281 232.484375 L 357.652344 223.378906 C 361.902344 219.738281 367.972656 219.128906 373.4375 221.558594 C 378.902344 223.378906 382.546875 228.234375 383.152344 234.304688 L 384.976562 248.875 C 384.976562 251.300781 387.402344 253.121094 389.226562 253.121094 L 411.085938 253.121094 C 413.515625 253.121094 415.335938 251.300781 415.335938 248.875 L 417.15625 234.304688 C 417.765625 228.84375 421.410156 223.988281 426.875 221.558594 C 432.339844 219.128906 437.804688 219.738281 442.660156 223.378906 L 454.199219 232.484375 C 456.019531 233.699219 458.449219 233.699219 460.269531 231.878906 L 475.449219 216.703125 C 477.273438 214.882812 477.273438 212.453125 476.058594 210.632812 L 466.949219 199.101562 C 463.304688 194.851562 462.699219 188.78125 465.128906 183.316406 C 467.554688 177.855469 471.808594 174.214844 477.878906 173.605469 L 492.453125 171.785156 C 494.882812 171.179688 496.703125 169.355469 496.703125 167.535156 L 496.703125 145.683594 C 495.488281 143.257812 493.667969 141.4375 491.238281 141.4375 Z M 399.546875 198.492188 C 376.472656 198.492188 357.652344 179.675781 357.652344 156.609375 C 357.652344 133.542969 376.472656 114.726562 399.546875 114.726562 C 422.621094 114.726562 441.445312 133.542969 441.445312 156.609375 C 441.445312 179.675781 422.621094 198.492188 399.546875 198.492188 Z M 399.546875 198.492188 " fill-opacity="1" fill-rule="nonzero"/><path fill="#000000" d="M 399.546875 131.722656 C 385.582031 131.722656 374.652344 142.648438 374.652344 156.609375 C 374.652344 170.570312 385.582031 181.496094 399.546875 181.496094 C 413.515625 181.496094 424.445312 170.570312 424.445312 156.609375 C 424.445312 142.648438 413.515625 131.722656 399.546875 131.722656 Z M 399.546875 131.722656 " fill-opacity="1" fill-rule="nonzero"/><path fill="#000000" d="M 326.683594 243.410156 L 312.109375 241.589844 C 306.644531 240.980469 301.785156 237.339844 299.359375 231.878906 C 297.535156 226.414062 298.144531 220.953125 301.179688 216.097656 L 310.289062 204.5625 C 311.503906 202.742188 311.503906 200.3125 309.679688 198.492188 L 294.5 183.316406 C 292.679688 181.496094 290.25 181.496094 288.429688 182.710938 L 276.890625 191.816406 C 272.640625 195.457031 266.566406 196.066406 261.101562 193.636719 C 255.636719 191.816406 251.996094 186.960938 251.386719 181.496094 L 249.566406 166.929688 C 249.566406 164.5 247.136719 162.679688 245.316406 162.679688 L 223.457031 162.679688 C 221.027344 162.679688 219.207031 164.5 219.207031 166.929688 L 217.382812 181.496094 C 216.777344 186.960938 213.132812 191.816406 207.667969 193.636719 C 202.203125 196.066406 196.738281 195.457031 191.878906 191.816406 L 180.34375 182.710938 C 178.523438 181.496094 176.09375 181.496094 174.273438 183.316406 L 160.304688 199.101562 C 158.484375 200.921875 158.484375 203.347656 159.699219 205.167969 L 168.804688 216.703125 C 172.449219 220.953125 173.058594 227.023438 170.628906 232.484375 C 168.199219 237.949219 163.949219 241.589844 157.875 242.195312 L 143.304688 244.015625 C 140.875 244.015625 139.054688 246.445312 139.054688 248.265625 L 139.054688 270.117188 C 139.054688 272.546875 140.875 274.367188 143.304688 274.367188 L 157.875 276.1875 C 163.339844 276.792969 168.199219 280.4375 170.628906 285.898438 C 173.058594 291.363281 171.84375 296.824219 168.804688 301.679688 L 160.304688 312.605469 C 159.089844 314.429688 159.089844 316.855469 160.914062 318.675781 L 176.09375 333.851562 C 177.914062 335.671875 180.34375 335.671875 182.164062 334.460938 L 193.703125 325.355469 C 197.953125 321.710938 204.023438 321.105469 209.488281 323.535156 C 214.953125 325.355469 218.597656 330.210938 219.207031 336.28125 L 221.027344 350.847656 C 221.027344 353.277344 223.457031 355.097656 225.277344 355.097656 L 247.136719 355.097656 C 249.566406 355.097656 251.386719 353.277344 251.386719 350.847656 L 253.210938 336.28125 C 253.816406 330.816406 257.460938 325.960938 262.925781 323.535156 C 268.390625 321.105469 273.855469 321.710938 278.710938 325.355469 L 290.25 334.460938 C 292.070312 335.671875 294.5 335.671875 296.320312 333.851562 L 311.503906 318.675781 C 313.324219 316.855469 313.324219 314.429688 312.109375 312.605469 L 303 301.074219 C 299.359375 296.824219 298.75 290.753906 301.179688 285.292969 C 303.609375 279.828125 307.859375 276.1875 313.929688 275.582031 L 328.503906 273.761719 C 330.933594 273.152344 332.753906 271.332031 332.753906 269.511719 L 332.753906 247.660156 C 330.933594 245.230469 329.113281 243.410156 326.683594 243.410156 Z M 235.601562 300.46875 C 212.527344 300.46875 193.703125 281.652344 193.703125 258.585938 C 193.703125 235.519531 212.527344 216.703125 235.601562 216.703125 C 258.675781 216.703125 277.5 235.519531 277.5 258.585938 C 276.890625 281.652344 258.675781 300.46875 235.601562 300.46875 Z M 235.601562 300.46875 " fill-opacity="1" fill-rule="nonzero"/><path fill="#000000" d="M 235.601562 233.699219 C 221.632812 233.699219 210.703125 244.625 210.703125 258.585938 C 210.703125 272.546875 221.632812 283.472656 235.601562 283.472656 C 249.566406 283.472656 260.496094 272.546875 260.496094 258.585938 C 260.496094 244.625 249.566406 233.699219 235.601562 233.699219 Z M 235.601562 233.699219 " fill-opacity="1" fill-rule="nonzero"/><g clip-path="url(#f0f2a7c202)"><path fill="#000000" d="M 308.464844 102.589844 L 299.359375 96.519531 C 295.714844 94.089844 293.894531 90.449219 294.5 86.199219 C 294.5 81.949219 296.929688 78.308594 301.179688 76.488281 L 310.894531 71.632812 C 312.109375 71.023438 313.324219 69.203125 312.714844 67.382812 L 307.25 52.207031 C 306.039062 51.601562 304.214844 50.386719 303 50.992188 L 292.679688 53.421875 C 288.429688 54.636719 284.785156 52.816406 281.75 49.78125 C 278.710938 46.746094 278.105469 42.496094 279.320312 38.246094 L 282.964844 27.929688 C 283.570312 26.105469 282.964844 24.285156 281.140625 23.679688 L 266.566406 16.394531 C 265.355469 15.789062 263.53125 16.394531 262.316406 17.609375 L 256.246094 26.714844 C 253.816406 30.355469 250.171875 32.175781 245.921875 31.570312 C 241.671875 31.570312 238.027344 29.140625 236.207031 25.5 L 231.351562 15.789062 C 230.742188 13.96875 228.921875 13.359375 227.097656 13.96875 L 211.917969 19.429688 C 210.097656 20.039062 209.488281 21.859375 209.488281 23.074219 L 211.917969 33.390625 C 212.527344 37.640625 211.3125 41.28125 208.277344 44.316406 C 205.238281 47.351562 200.988281 47.960938 196.738281 46.746094 L 186.414062 43.101562 C 184.59375 42.496094 183.378906 43.101562 182.164062 44.925781 L 175.484375 58.886719 C 174.878906 60.707031 175.484375 61.917969 176.699219 63.132812 L 185.808594 69.203125 C 189.453125 71.632812 191.273438 75.273438 190.667969 79.523438 C 190.667969 83.773438 188.238281 87.414062 184.59375 89.234375 L 174.878906 94.089844 C 173.058594 94.699219 172.449219 96.519531 173.058594 98.339844 L 177.914062 113.515625 C 178.523438 115.335938 180.34375 115.941406 181.558594 115.941406 L 192.488281 113.515625 C 196.738281 112.300781 200.382812 114.121094 203.417969 117.15625 C 206.453125 120.191406 207.0625 124.441406 205.847656 128.6875 L 202.203125 139.007812 C 201.597656 140.828125 202.203125 142.648438 204.023438 143.257812 L 218.597656 150.539062 C 219.8125 151.148438 222.242188 150.539062 222.847656 149.328125 L 228.921875 140.222656 C 231.351562 136.578125 234.992188 134.757812 239.242188 135.367188 C 243.492188 135.367188 247.136719 137.792969 248.960938 141.4375 L 253.816406 151.148438 C 254.425781 152.96875 256.246094 153.574219 258.066406 152.96875 L 273.246094 147.503906 C 275.070312 146.898438 275.675781 145.078125 275.675781 143.863281 L 273.246094 133.542969 C 272.035156 129.296875 273.855469 125.652344 276.890625 122.617188 C 279.925781 119.585938 284.175781 118.976562 288.429688 120.191406 L 298.75 123.832031 C 300.574219 124.441406 301.785156 123.832031 303 122.011719 L 309.679688 108.050781 C 310.289062 105.625 309.679688 103.800781 308.464844 102.589844 Z M 229.527344 111.085938 C 214.347656 103.800781 208.277344 85.59375 215.5625 70.417969 C 222.847656 55.242188 241.066406 49.171875 256.246094 56.457031 C 271.425781 63.742188 277.5 81.949219 270.210938 97.125 C 262.925781 111.691406 244.707031 118.371094 229.527344 111.085938 Z M 229.527344 111.085938 " fill-opacity="1" fill-rule="nonzero"/></g><path fill="#000000" d="M 251.386719 66.777344 C 242.28125 62.527344 231.351562 66.167969 227.097656 75.273438 C 222.847656 84.378906 226.492188 95.304688 235.601562 99.554688 C 244.707031 103.800781 255.636719 100.160156 259.890625 91.054688 C 264.140625 82.558594 260.496094 71.632812 251.386719 66.777344 Z M 251.386719 66.777344 " fill-opacity="1" fill-rule="nonzero"/></svg>