<svg width="155" height="164" viewBox="0 0 155 164" fill="none" xmlns="http://www.w3.org/2000/svg">
<path fill-rule="evenodd" clip-rule="evenodd" d="M76.1949 1.32156C75.4329 2.23956 75.1349 6.42456 75.3219 13.5716C75.5899 23.7636 75.7359 24.4446 77.7269 24.7286C80.5019 25.1246 81.0759 22.8476 81.0929 11.3766C81.1019 5.65359 80.666 1.88559 79.907 1.12659C78.355 -0.425414 77.6119 -0.386437 76.1949 1.32156ZM36.7739 11.5936C35.3619 13.0046 36.2809 15.4626 41.2419 23.5526C46.3719 31.9176 48.5599 33.4956 50.9819 30.5776C51.8439 29.5386 51.1909 27.8186 48.1449 23.1076C45.9699 19.7406 43.4839 15.6226 42.6219 13.9566C41.1699 11.1486 38.3559 10.0116 36.7739 11.5936ZM113.025 13.1816C112.155 14.4166 109.533 18.7136 107.198 22.7316C103.781 28.6146 103.188 30.3186 104.153 31.4816C106.598 34.4286 108.608 32.8696 113.607 24.1486C116.357 19.3516 118.607 14.5266 118.607 13.4266C118.607 10.5746 114.975 10.4146 113.025 13.1816ZM67.1069 35.2866C55.1249 38.5486 44.6719 46.9916 39.4569 57.6186C36.8729 62.8836 36.6069 64.4086 36.6069 73.9266C36.6069 86.3966 38.2739 90.8136 47.5499 102.927C50.7089 107.052 53.699 111.462 54.194 112.726C54.6899 113.991 55.1679 122.766 55.2569 132.226C55.4389 151.582 55.93 153.296 61.595 154.359C64.083 154.826 65.47 155.752 66.079 157.354C67.439 160.93 73.1129 163.927 78.5249 163.927C84.2979 163.927 88.5999 161.808 90.5729 157.993C91.5169 156.166 93.1628 154.854 95.0209 154.446C96.6419 154.09 98.4919 153.168 99.1319 152.397C99.9009 151.47 100.374 144.811 100.531 132.712C100.791 112.551 101.109 111.275 107.823 103.427C109.705 101.227 113.126 95.6356 115.426 91.0016C119.41 82.9736 119.607 82.1496 119.607 73.4806C119.607 65.2256 119.304 63.7696 116.333 57.7336C112.75 50.4566 104.817 42.3536 97.725 38.7266C88.63 34.0766 76.5409 32.7186 67.1069 35.2866ZM132.044 40.0766C122.504 46.4576 121.126 48.0396 123.068 50.3796C124.609 52.2356 125.97 51.6666 135.857 45.0266C141.959 40.9286 144.107 38.9206 144.107 37.3136C144.107 33.2536 141.274 33.9026 132.044 40.0766ZM10.7109 36.5166C9.80592 38.8746 10.5159 39.5756 20.3559 46.0366C27.4059 50.6666 29.6669 51.7076 30.7379 50.8186C33.5769 48.4616 32.0299 46.2776 23.5209 40.6276C14.6269 34.7226 11.7529 33.8006 10.7109 36.5166ZM94.303 43.1386C106.308 48.6776 114.364 60.5576 114.438 72.8346C114.495 82.1156 111.925 88.7976 104.615 98.3786C97.048 108.297 96.1839 109.854 95.2749 115.224C94.5999 119.204 94.3649 119.443 90.8349 119.737C88.7839 119.908 87.1099 119.683 87.1139 119.237C87.1299 117.365 91.4389 100.569 94.7449 89.4886C98.6579 76.3756 98.721 71.6966 95.027 68.6766C92.369 66.5046 87.2789 66.4166 84.3159 68.4926C83.0859 69.3536 81.1129 71.9416 79.9309 74.2426L77.7809 78.4266L76.4949 75.3086C74.7098 70.9816 69.6099 66.9266 65.9529 66.9266C62.2339 66.9266 57.1069 71.7236 57.1069 75.2036C57.1069 76.5406 58.9469 83.8666 61.1959 91.4826C65.5069 106.088 68.2249 118.476 67.3159 119.385C67.0179 119.683 65.5379 119.927 64.0279 119.927C61.5749 119.927 61.208 119.474 60.579 115.677C59.664 110.154 58.9839 108.896 51.9819 99.7586C43.5599 88.7676 41.7809 84.2836 41.7319 73.9266C41.6849 63.8536 43.6999 58.4926 50.1799 51.4636C58.4459 42.4956 65.3279 39.8236 79.1069 40.2306C86.8669 40.4596 89.65 40.9916 94.303 43.1386ZM71.8849 79.1846L75.1629 85.4266L75.1349 100.247C75.1069 115.05 75.1089 115.066 77.3569 114.747C79.2379 114.479 79.7159 113.608 80.2689 109.427C80.6339 106.677 80.9709 99.8946 81.0189 94.3556C81.0969 85.4516 81.4249 83.6566 83.8569 78.8556C86.0039 74.6166 87.1819 73.3596 89.2289 73.1226C90.9329 72.9246 92.0699 73.3886 92.4759 74.4466C92.8199 75.3416 91.1199 82.9126 88.6999 91.2696C86.2789 99.6276 83.7469 109.269 83.0729 112.696C82.3979 116.123 81.4549 118.977 80.9769 119.038C80.4979 119.099 79.2069 119.149 78.1069 119.149C77.0069 119.149 75.5039 119.099 74.7669 119.038C73.9209 118.968 72.9739 116.388 72.1949 112.033C71.5179 108.241 69.1959 99.1396 67.0349 91.8086C64.8749 84.4766 63.1069 77.2286 63.1069 75.7026C63.1069 73.3386 63.5149 72.9276 65.8569 72.9346C68.2099 72.9426 69.0799 73.8446 71.8849 79.1846ZM0.468974 75.4266C-1.03703 79.3496 0.567924 79.9266 12.9919 79.9266C25.4289 79.9266 26.8599 79.4176 24.9369 75.6766C24.1589 74.1636 22.4799 73.9266 12.5399 73.9266C3.2439 73.9266 0.933974 74.2136 0.468974 75.4266ZM131.118 75.4136C130.439 76.2316 130.144 77.5816 130.464 78.4136C130.935 79.6436 133.205 79.9266 142.576 79.9266H154.107V76.9266V73.9266H143.229C134.822 73.9266 132.072 74.2646 131.118 75.4136ZM19.8569 109.6C11.2699 116.066 9.29788 119.019 12.6969 120.323C14.6109 121.058 14.5089 121.115 24.8929 113.502C31.0899 108.958 33.1059 106.923 32.8929 105.427C32.3649 101.734 28.7779 102.882 19.8569 109.6ZM122.185 104.781C121.398 106.253 121.751 107.153 123.9 109.144C127.185 112.19 140.005 120.927 141.188 120.927C141.655 120.927 142.565 119.94 143.21 118.734C144.547 116.237 144.5 116.188 132.634 107.836C124.951 102.427 123.649 102.046 122.185 104.781ZM94.9269 127.677L95.2459 129.927H78.1769C62.2909 129.927 61.1069 129.8 61.1069 128.094C61.1069 127.085 61.418 125.95 61.798 125.57C62.177 125.19 69.715 125.003 78.548 125.153C94.3459 125.423 94.6119 125.464 94.9269 127.677ZM94.9179 138.177C95.2269 139.788 93.9019 139.927 78.1799 139.927C61.7059 139.927 61.1069 139.856 61.1069 137.903C61.1069 135.94 61.617 135.887 77.844 136.153C92.862 136.399 94.6159 136.607 94.9179 138.177ZM94.8589 147.177C94.0509 149.613 61.1069 149.298 61.1069 146.855C61.1069 146.321 68.3509 145.927 78.1899 145.927C91.4119 145.927 95.1799 146.21 94.8589 147.177ZM85.1069 156.427C83.4789 158.389 75.128 158.41 72.548 156.459C70.7879 155.127 71.3389 154.988 78.4789 154.959C85.3659 154.931 86.1959 155.115 85.1069 156.427Z" fill="black"/>
</svg>
