<svg xmlns="http://www.w3.org/2000/svg" xmlns:xlink="http://www.w3.org/1999/xlink" width="800" zoomAndPan="magnify" viewBox="0 0 600 599.999999" height="800" preserveAspectRatio="xMidYMid meet" version="1.0"><defs><clipPath id="407b0db63b"><path d="M 492.296875 272 L 583.464844 272 L 583.464844 296 L 492.296875 296 Z M 492.296875 272 " clip-rule="nonzero"/></clipPath><clipPath id="8c4ff81ede"><path d="M 16.5 272 L 108 272 L 108 296 L 16.5 296 Z M 16.5 272 " clip-rule="nonzero"/></clipPath></defs><path fill="#000000" d="M 397.265625 358.878906 C 362.675781 400.878906 362.675781 436.703125 362.675781 436.703125 L 362.675781 461 L 237.292969 461 L 237.292969 436.703125 C 237.292969 436.703125 237.292969 400.878906 202.703125 358.878906 C 202.703125 358.878906 159.882812 308.921875 184.039062 244.140625 C 207.554688 181.074219 262.476562 161.191406 297.1875 161.195312 C 298.132812 161.195312 299.070312 161.210938 299.980469 161.238281 C 300.90625 161.210938 301.832031 161.195312 302.78125 161.195312 C 337.492188 161.195312 392.417969 181.078125 415.929688 244.140625 C 440.085938 308.921875 397.265625 358.878906 397.265625 358.878906 Z M 446.0625 290.421875 C 446.878906 272.078125 443.953125 253.816406 437.363281 236.148438 C 430.898438 218.796875 421.941406 203.230469 410.742188 189.875 C 400.683594 177.882812 388.820312 167.660156 375.492188 159.507812 C 363.777344 152.339844 351.109375 146.863281 337.84375 143.222656 C 326.132812 140.015625 314.007812 138.316406 302.78125 138.316406 C 301.84375 138.316406 300.910156 138.332031 299.980469 138.355469 C 299.058594 138.332031 298.125 138.316406 297.1875 138.316406 C 285.960938 138.316406 273.839844 140.015625 262.128906 143.222656 C 248.859375 146.863281 236.195312 152.335938 224.476562 159.507812 C 211.148438 167.65625 199.285156 177.878906 189.226562 189.875 C 178.03125 203.230469 169.070312 218.796875 162.601562 236.148438 C 156.015625 253.816406 153.089844 272.078125 153.914062 290.421875 C 154.5625 305.015625 157.582031 319.609375 162.882812 333.804688 C 171.40625 356.640625 183.074219 371.085938 185.144531 373.539062 C 200.546875 392.277344 207.75 409.253906 211.085938 420.203125 C 214.113281 430.160156 214.417969 436.644531 214.417969 436.703125 L 214.417969 467.476562 C 214.417969 476.53125 221.757812 483.871094 230.8125 483.871094 L 369.160156 483.871094 C 378.214844 483.871094 385.550781 476.53125 385.550781 467.476562 L 385.550781 436.933594 C 385.589844 436.160156 385.980469 429.046875 389.507812 418.238281 C 392.925781 407.730469 400.097656 391.457031 414.832031 373.539062 C 416.894531 371.085938 428.5625 356.640625 437.085938 333.804688 C 442.386719 319.609375 445.40625 305.015625 446.0625 290.421875 " fill-opacity="1" fill-rule="nonzero"/><path fill="#000000" d="M 311.417969 11.816406 C 311.417969 5.503906 306.300781 0.378906 299.980469 0.378906 C 293.667969 0.378906 288.546875 5.503906 288.546875 11.816406 L 288.546875 91.515625 L 311.417969 91.515625 L 311.417969 11.816406 " fill-opacity="1" fill-rule="nonzero"/><g clip-path="url(#407b0db63b)"><path fill="#000000" d="M 572.03125 272.425781 L 492.332031 272.425781 L 492.332031 295.304688 L 572.03125 295.304688 C 578.347656 295.304688 583.46875 290.183594 583.46875 283.867188 C 583.46875 277.546875 578.347656 272.425781 572.03125 272.425781 " fill-opacity="1" fill-rule="nonzero"/></g><path fill="#000000" d="M 444.085938 411.789062 L 427.910156 427.964844 L 484.261719 484.316406 C 488.726562 488.785156 495.972656 488.785156 500.4375 484.316406 C 504.90625 479.851562 504.90625 472.609375 500.4375 468.144531 L 444.085938 411.789062 " fill-opacity="1" fill-rule="nonzero"/><path fill="#000000" d="M 500.4375 99.585938 C 504.90625 95.121094 504.90625 87.878906 500.4375 83.414062 C 495.972656 78.945312 488.726562 78.945312 484.261719 83.414062 L 427.910156 139.765625 L 444.085938 155.9375 L 500.4375 99.585938 " fill-opacity="1" fill-rule="nonzero"/><g clip-path="url(#8c4ff81ede)"><path fill="#000000" d="M 107.636719 272.425781 L 27.9375 272.425781 C 21.621094 272.425781 16.5 277.546875 16.5 283.867188 C 16.5 290.183594 21.621094 295.304688 27.9375 295.304688 L 107.636719 295.304688 L 107.636719 272.425781 " fill-opacity="1" fill-rule="nonzero"/></g><path fill="#000000" d="M 99.53125 468.144531 C 95.066406 472.609375 95.066406 479.851562 99.53125 484.316406 C 104 488.785156 111.242188 488.785156 115.707031 484.316406 L 172.0625 427.964844 L 155.882812 411.789062 L 99.53125 468.144531 " fill-opacity="1" fill-rule="nonzero"/><path fill="#000000" d="M 155.882812 155.9375 L 172.0625 139.765625 L 115.707031 83.414062 C 111.242188 78.945312 104 78.945312 99.53125 83.414062 C 95.066406 87.878906 95.066406 95.121094 99.53125 99.585938 L 155.882812 155.9375 " fill-opacity="1" fill-rule="nonzero"/><path fill="#000000" d="M 297.75 190.421875 C 297.300781 183.765625 291.199219 178.980469 284.617188 180.078125 C 254.019531 185.175781 235.085938 200.515625 224.257812 213.269531 C 218.480469 220.070312 214.40625 226.8125 211.636719 232.324219 C 208.421875 238.710938 211.847656 246.429688 218.746094 248.289062 L 219.0625 248.371094 C 224.214844 249.761719 229.636719 247.34375 232.042969 242.574219 C 238.199219 230.355469 253.820312 208.453125 288.320312 202.65625 C 294.058594 201.691406 298.160156 196.589844 297.773438 190.785156 L 297.75 190.421875 " fill-opacity="1" fill-rule="nonzero"/><path fill="#000000" d="M 364.054688 494.578125 L 235.152344 494.578125 C 229.058594 494.578125 224.117188 499.695312 224.117188 506.011719 C 224.117188 512.332031 229.058594 517.453125 235.152344 517.453125 L 364.054688 517.453125 C 370.148438 517.453125 375.09375 512.332031 375.09375 506.011719 C 375.09375 499.695312 370.148438 494.578125 364.054688 494.578125 " fill-opacity="1" fill-rule="nonzero"/><path fill="#000000" d="M 364.054688 528.15625 L 235.152344 528.15625 C 229.058594 528.15625 224.117188 533.277344 224.117188 539.59375 C 224.117188 545.914062 229.058594 551.035156 235.152344 551.035156 L 364.054688 551.035156 C 370.148438 551.035156 375.09375 545.914062 375.09375 539.59375 C 375.09375 533.277344 370.148438 528.15625 364.054688 528.15625 " fill-opacity="1" fill-rule="nonzero"/><path fill="#000000" d="M 357.664062 561.738281 L 241.542969 561.738281 C 238.148438 561.738281 236.449219 565.835938 238.851562 568.234375 L 258.085938 587.476562 C 263.714844 593.101562 270.960938 596.839844 278.8125 598.089844 C 284.175781 598.9375 291.121094 599.621094 299.601562 599.621094 C 308.089844 599.621094 315.035156 598.9375 320.394531 598.089844 C 328.246094 596.839844 335.492188 593.101562 341.117188 587.476562 L 360.355469 568.234375 C 362.757812 565.835938 361.058594 561.738281 357.664062 561.738281 " fill-opacity="1" fill-rule="nonzero"/></svg>