<svg width="76" height="24" viewBox="0 0 76 24" fill="none" xmlns="http://www.w3.org/2000/svg">
<mask id="mask0_62_2" style="mask-type:luminance" maskUnits="userSpaceOnUse" x="0" y="0" width="20" height="24">
<path d="M0.743896 0.927734H19.7099V23.3737H0.743896V0.927734Z" fill="white"/>
</mask>
<g mask="url(#mask0_62_2)">
<path d="M0.743896 23.3574V9.2697H10.2921L14.1265 15.019H6.49405V17.6081H15.8466L19.6809 23.3574H0.743896ZM6.67077 6.6878L2.84458 0.939453H15.8529L19.6791 6.6878H6.67077Z" fill="#373643"/>
</g>
<mask id="mask1_62_2" style="mask-type:luminance" maskUnits="userSpaceOnUse" x="24" y="5" width="52" height="19">
<path d="M75.5916 5.62598H24.408V23.2H75.5916V5.62598Z" fill="white"/>
</mask>
<g mask="url(#mask1_62_2)">
<path d="M46.0843 17.1261V19H37.3975V17.5083L42.8485 10.9403H37.5125V9.06641H45.869V10.5581L40.4365 17.1261H46.0843Z" fill="#373643"/>
<path d="M54.5654 19L52.6506 16.2318H50.5355V19H48.2349V9.06641H52.5356C53.416 9.06641 54.1804 9.21391 54.8288 9.50798C55.4763 9.8002 55.9754 10.2158 56.3242 10.7548C56.6749 11.2947 56.8512 11.9329 56.8512 12.6695C56.8512 13.4098 56.6731 14.0462 56.3168 14.5805C55.9625 15.1149 55.4596 15.5249 54.8066 15.8088L57.033 19H54.5654ZM54.5208 12.6695C54.5208 12.1129 54.3409 11.6862 53.9828 11.3893C53.6238 11.0906 53.0996 10.9403 52.4094 10.9403H50.5355V14.4024H52.4094C53.0996 14.4024 53.6238 14.2521 53.9828 13.9497C54.3409 13.6454 54.5208 13.2187 54.5208 12.6695Z" fill="#373643"/>
<path d="M67.0281 16.8701H62.4156L61.5362 19H59.1836L63.6105 9.06641H65.8815L70.3195 19H67.9075L67.0281 16.8701ZM66.3045 15.126L64.7311 11.3225L63.1541 15.126H66.3045Z" fill="#373643"/>
<path d="M35.2469 17.1612V19.002H26.5586V9.06641H35.0428V10.9159H29.1437V13.0665H34.3528V14.8557H29.1437V17.1612H35.2469Z" fill="#373643"/>
</g>
</svg>
