<svg width="180" height="150" viewBox="0 0 180 150" fill="none" xmlns="http://www.w3.org/2000/svg">
<path fill-rule="evenodd" clip-rule="evenodd" d="M95.296 0.798519C94.568 1.26152 93.975 4.71152 93.796 9.53352L93.5 17.5025L49.903 18.0025C2.71595 18.5435 4.43496 18.3265 1.43396 24.1305C0.23796 26.4425 0 36.3105 0 83.5515C0 133.848 0.183005 140.586 1.63 143.636C4.829 150.377 0.527992 150.003 74.818 150.003C136.527 150.003 142.434 149.86 145.08 148.297C149.837 145.486 151 141.618 151 128.602V117.003H162.566C173.624 117.003 177.491 116.214 179.235 113.603C179.639 112.998 179.976 89.0905 179.985 60.4755C180.002 2.16053 180.417 5.45852 172.617 1.91652C169.038 0.290522 165.867 0.0435242 148.332 0.0245242C137.239 0.0125242 127.452 0.275523 126.582 0.609523C125.268 1.11352 125 3.13552 125 12.5275C125 18.7485 125.273 24.5505 125.607 25.4205C126.127 26.7765 128.625 27.0025 143.107 27.0025H160V59.0025V91.0025H138.5H117V46.7025C117 13.5805 116.697 2.09952 115.8 1.20252C114.459 -0.138482 97.303 -0.476481 95.296 0.798519ZM109.805 12.7525L109.5 17.5025H105.5H101.5L101.195 12.7525L100.89 8.00252H105.5H110.11L109.805 12.7525ZM172.759 59.7525L172.5 110.503H162.017H151.533L150.92 106.725C150.306 102.947 147.796 100.095 145.031 100.035C144.224 100.017 141.197 102.339 138.306 105.194C135.415 108.05 132.852 110.187 132.61 109.944C131.726 109.058 130.908 100.867 131.513 98.9615C132.095 97.1265 133.129 97.0015 147.817 96.9875C156.443 96.9785 164.175 96.5455 165 96.0235C166.288 95.2095 166.5 89.9885 166.5 59.0885C166.5 30.9355 166.218 22.8195 165.203 21.8025C164.276 20.8735 159.35 20.4115 147.953 20.1835L132 19.8645V14.4335V9.00252H152.509H173.018L172.759 59.7525ZM110 59.7895C110.424 89.6925 110.729 95.2215 112 96.0245C112.825 96.5455 116.071 96.9785 119.214 96.9875L124.928 97.0025L125.214 106.753L125.5 116.503L131.982 116.807C138.25 117.1 138.554 117.002 141.205 113.807L143.946 110.503L143.973 125.696C143.999 140.278 143.911 140.952 141.777 142.446C139.822 143.816 131.856 144.003 75.5 144.003C19.144 144.003 11.178 143.816 9.22302 142.446L7 140.89V84.0025V27.1155L9.23596 25.5495C11.204 24.1715 17.34 24.0145 60.486 24.2435L109.5 24.5025L110 59.7895ZM19.9301 45.5865C18.9771 46.7345 18.905 47.6285 19.666 48.8365C20.555 50.2485 22.998 50.5445 35.714 50.7775C51.818 51.0735 53.922 50.4815 52.515 46.0505C51.897 44.1035 51.1071 44.0025 36.5551 44.0025C23.8061 44.0025 21.0251 44.2675 19.9301 45.5865ZM58.9659 46.0665C56.7389 50.2265 59.025 51.0025 73.5 51.0025C87.687 51.0025 89.86 50.2865 88.515 46.0505C87.901 44.1155 87.096 44.0025 73.968 44.0025C60.95 44.0025 59.9999 44.1335 58.9659 46.0665ZM20.326 60.5285C18.875 61.6065 18.728 62.2565 19.608 63.6935C20.598 65.3105 22.5861 65.5315 38.3101 65.7755C55.5341 66.0425 55.93 66.0025 57.079 63.8545C58.06 62.0215 57.947 61.4365 56.39 60.2985C53.753 58.3695 22.966 58.5665 20.326 60.5285ZM19.59 76.6295C18.115 80.4735 20.4691 81.0025 39.0551 81.0025C55.9601 81.0025 96.9 80.89 97.5 79C97.848 77.905 98.342 76.055 98 75.5C97.617 74.881 49.8 75.0025 38.548 75.0025C22.539 75.0025 20.135 75.2085 19.59 76.6295ZM19.3621 107.503C19.0451 108.328 19.0451 109.678 19.3621 110.503C19.8401 111.75 22.632 112.003 35.885 112.003C52.498 112.003 53.833 111.647 51.83 107.753C51.031 106.2 49.182 106.003 35.433 106.003C22.582 106.003 19.8391 106.259 19.3621 107.503ZM59.645 107.486C59.325 108.321 59.325 109.685 59.645 110.52C60.148 111.83 63.707 112 85.863 111.77L111.5 111.503V109.003V106.503L85.863 106.236C63.707 106.006 60.148 106.176 59.645 107.486ZM92 120.982L59.5 121.503V124.003V126.503L94.1379 126.766C124.988 127 128.843 126.855 129.385 125.443C130.241 123.212 128.262 119.959 126.215 120.232C125.272 120.358 109.875 120.696 92 120.982ZM28.3621 122.503C26.8671 126.397 28.488 127.003 40.401 127.003C50.97 127.003 51.9149 126.847 52.4969 125.012C52.8449 123.917 52.848 122.567 52.506 122.012C52.145 121.428 47.047 121.003 40.41 121.003C31.134 121.003 28.8271 121.29 28.3621 122.503Z" fill="black"/>
</svg>
